<svg xmlns="http://www.w3.org/2000/svg" viewBox="0 0 66 66">
  <style>
    .shape{
        fill: #4e12db;
    }
    @media (prefers-color-scheme: dark) {
    .shape{
        fill: #ffffff;
    }
    }
  </style>
<g>
	<path class="shape" d="M33,0C14.8,0,0,14.8,0,33s14.8,33,33,33c18.2,0,33-14.8,33-33S51.2,0,33,0z M31.9,46.6L31.9,46.6h-6l-7.4-11.2
		h-1.1v11.2h-5.1V19.4h5.1v11.2h1.1l7.2-11.2h5.8v0.2l-8.4,13v0.7l8.9,13V46.6z M53.8,37c0,3.3-0.8,5.7-2.4,7.3
		c-1.6,1.6-4.1,2.3-7.5,2.3H34v-4.9h2.6V24.3H34v-4.9h9.9c3.4,0,5.9,0.8,7.5,2.4c1.6,1.6,2.4,4,2.4,7.3V37z"/>
	<path class="shape" d="M43.9,24.3h-2.2v17.4h2.2c1.8,0,3-0.4,3.7-1.2c0.7-0.9,1.1-2.2,1.1-4V29c0-1.6-0.4-2.7-1.1-3.5
		C46.9,24.7,45.6,24.3,43.9,24.3z"/>
</g>
</svg>