<svg width="66" height="66" viewBox="0 0 66 66" fill="none" xmlns="http://www.w3.org/2000/svg">
<g clip-path="url(#clip0_15_5)">
<path d="M33 0C14.7797 0 0 14.7797 0 33C0 51.2203 14.7797 66 33 66C51.2203 66 66 51.2203 66 33C66 14.7797 51.2203 0 33 0ZM31.9072 46.6111H25.8807L18.4475 35.4452H17.3223V46.6111H12.1938V19.3889H17.3223V30.5548H18.4475L25.6426 19.3889H31.442V19.6269L23.0459 32.6538V33.357L31.918 46.3839V46.6111H31.9072ZM53.8062 36.9708C53.8062 40.26 52.9948 42.7052 51.361 44.2849C49.7272 45.8429 47.2279 46.622 43.8521 46.622H33.9738V41.6882H36.538V24.2902H33.9738V19.3889H43.8521C47.2279 19.3889 49.7272 20.1787 51.361 21.7584C52.9948 23.3164 53.8062 25.74 53.8062 29.0292V36.9708Z" fill="white"/>
<path d="M43.8521 24.2902H41.6774V41.7098H43.8521C45.6374 41.7098 46.8816 41.2987 47.5849 40.4656C48.3098 39.6108 48.6777 38.2908 48.6777 36.4948V29.0292C48.6777 27.4711 48.3098 26.2918 47.5849 25.4911C46.8925 24.6905 45.6482 24.2902 43.8521 24.2902Z" fill="white"/>
</g>
<defs>
<clipPath id="clip0_15_5">
<rect width="66" height="66" fill="white"/>
</clipPath>
</defs>
</svg>
